<?xml version="1.0" encoding="UTF-8" standalone="no"?>
<svg
   xmlns:dc="http://purl.org/dc/elements/1.1/"
   xmlns:cc="http://creativecommons.org/ns#"
   xmlns:rdf="http://www.w3.org/1999/02/22-rdf-syntax-ns#"
   xmlns:svg="http://www.w3.org/2000/svg"
   xmlns="http://www.w3.org/2000/svg"
   xmlns:xlink="http://www.w3.org/1999/xlink"
   xmlns:sodipodi="http://sodipodi.sourceforge.net/DTD/sodipodi-0.dtd"
   xmlns:inkscape="http://www.inkscape.org/namespaces/inkscape"
   width="48"
   height="48"
   viewBox="0 0 12.7 12.7"
   version="1.1"
   id="svg1637"
   inkscape:version="1.0 (4035a4fb49, 2020-05-01)"
   sodipodi:docname="appcenter-cien.svg">
  <defs
     id="defs1631">
    <linearGradient
       inkscape:collect="always"
       xlink:href="#linearGradient2979"
       id="linearGradient2961"
       gradientUnits="userSpaceOnUse"
       gradientTransform="matrix(0.9803884,0,0,0.9803884,236.57301,30.930388)"
       x1="-123.7172"
       y1="99.895973"
       x2="-73.710953"
       y2="149.63763" />
    <linearGradient
       inkscape:collect="always"
       id="linearGradient2979">
      <stop
         style="stop-color:#0091cc;stop-opacity:0.96862745"
         offset="0"
         id="stop2975" />
      <stop
         style="stop-color:#005765;stop-opacity:1"
         offset="1"
         id="stop2977" />
    </linearGradient>
    <linearGradient
       inkscape:collect="always"
       xlink:href="#linearGradient3002"
       id="linearGradient3004"
       x1="434.81049"
       y1="485.91687"
       x2="614.33759"
       y2="667.30743"
       gradientUnits="userSpaceOnUse" />
    <linearGradient
       inkscape:collect="always"
       id="linearGradient3002">
      <stop
         style="stop-color:#000000;stop-opacity:1;"
         offset="0"
         id="stop2998" />
      <stop
         style="stop-color:#000000;stop-opacity:0"
         offset="1"
         id="stop3000" />
    </linearGradient>
    <linearGradient
       inkscape:collect="always"
       xlink:href="#linearGradient6344"
       id="linearGradient2963"
       gradientUnits="userSpaceOnUse"
       gradientTransform="matrix(0.23672699,0,0,0.23672699,62.426578,36.915845)"
       x1="233.39648"
       y1="488.1416"
       x2="412.58203"
       y2="488.1416" />
    <linearGradient
       id="linearGradient6344"
       inkscape:collect="always">
      <stop
         id="stop6340"
         offset="0"
         style="stop-color:#ffffff;stop-opacity:1;" />
      <stop
         id="stop6342"
         offset="1"
         style="stop-color:#d3d3d3;stop-opacity:1" />
    </linearGradient>
  </defs>
  <sodipodi:namedview
     units="px"
     id="base"
     pagecolor="#ffffff"
     bordercolor="#666666"
     borderopacity="1.0"
     inkscape:pageopacity="0.0"
     inkscape:pageshadow="2"
     inkscape:zoom="3.959798"
     inkscape:cx="-16.653192"
     inkscape:cy="14.597055"
     inkscape:document-units="mm"
     inkscape:current-layer="layer1"
     inkscape:document-rotation="0"
     showgrid="false"
     fit-margin-top="0"
     fit-margin-left="0"
     fit-margin-right="0"
     fit-margin-bottom="0"
     inkscape:window-width="1920"
     inkscape:window-height="1043"
     inkscape:window-x="0"
     inkscape:window-y="0"
     inkscape:window-maximized="1" />
  <metadata
     id="metadata1634">
    <rdf:RDF>
      <cc:Work
         rdf:about="">
        <dc:format>image/svg+xml</dc:format>
        <dc:type
           rdf:resource="http://purl.org/dc/dcmitype/StillImage" />
        <dc:title></dc:title>
      </cc:Work>
    </rdf:RDF>
  </metadata>
  <g
     inkscape:label="Warstwa 1"
     inkscape:groupmode="layer"
     id="layer1"
     transform="translate(-69.107616,-85.576272)">
    <g
       id="g1542"
       transform="matrix(0.23999985,0,0,0.24000094,42.12473,55.332818)">
      <path
         inkscape:connector-curvature="0"
         id="path2955"
         d="m 121.24818,126.0139 a 8.8194105,8.8194105 0 0 0 -8.81942,8.81941 v 35.27764 a 8.8194105,8.8194105 0 0 0 8.81942,8.81941 h 35.27764 a 8.8194105,8.8194105 0 0 0 8.81941,-8.81941 v -35.27764 a 8.8194105,8.8194105 0 0 0 -8.81941,-8.81941 h -17.63883 z"
         style="fill:url(#linearGradient2961);fill-opacity:1;stroke:none;stroke-width:0.259394" />
      <path
         transform="scale(0.26458333)"
         d="m 546.50977,497.20898 -37.91993,10.68946 -63.79687,132.60742 9.89453,9.89453 -4.06055,4.87305 20.99805,20.99804 h 119.96875 a 33.333205,33.333205 0 0 0 33.33398,-33.33203 v -86.07812 l -20.63085,-20.63086 -11.7793,6.98633 z"
         style="opacity:0.5;fill:url(#linearGradient3004);fill-opacity:1;stroke:none;stroke-width:0.999999px;stroke-linecap:butt;stroke-linejoin:miter;stroke-opacity:1"
         id="path2993" />
      <path
         id="path2957"
         style="font-style:normal;font-variant:normal;font-weight:bold;font-stretch:normal;font-size:64.1649px;line-height:1.25;font-family:sans-serif;-inkscape-font-specification:'sans-serif, Bold';font-variant-ligatures:normal;font-variant-caps:normal;font-variant-numeric:normal;font-variant-east-asian:normal;fill:url(#linearGradient2963);fill-opacity:1;stroke:none;stroke-width:1.43524"
         d="m 131.72748,131.54468 -14.04966,37.93134 c 4.31828,-5.33139 9.7369,-10.16828 15.81494,-14.55363 l 4.68183,-13.56648 2.92117,8.50552 c 2.75295,-1.69667 5.59004,-3.31711 8.48195,-4.86215 l -4.98375,-13.4546 z m 28.15941,10.33368 c -17.93883,8.47112 -29.83802,18.26152 -40.66386,31.50272 l 0.75039,0.0185 7.06344,-0.004 c -1.1e-4,1.8e-4 -3.5e-4,2.7e-4 -4.6e-4,4.6e-4 h 0.0379 l 0.0185,-0.0523 c 4.2292,-6.98293 9.80153,-12.92441 15.8117,-18.21641 l 0.97928,2.85043 0.01,0.0286 2.64792,7.76484 h 0.0712 l 2.63498,7.62474 h 10.84829 l -9.19456,-24.82317 c 3.01887,-2.32997 6.04837,-4.54719 8.98545,-6.69494 z" />
    </g>
  </g>
</svg>
